<svg version="1.1" id="Layer_1" xmlns="http://www.w3.org/2000/svg" xmlns:xlink="http://www.w3.org/1999/xlink" x="0px" y="0px"
	 viewBox="-286 377.6 38.4 38.4" style="enable-background:new -286 377.6 38.4 38.4;" xml:space="preserve">
<style type="text/css">
	.st0{fill:#CF6159;}
	.st1{fill:#FFFFFF;}
</style>
<g id="XMLID_1_">
	<g>
		<path class="st0" d="M-255.7,396l-0.1,1.7c0,1.7-0.2,3.5-0.2,3.5s-0.2,1.5-0.9,2.2c-0.8,0.8-1.8,0.8-2.2,0.9
			c-1.5,0.1-3.4,0.1-4.9,0.2c-1.5,0-2.7,0-2.7,0s-4.5,0-7.6-0.2c-0.4,0-1.4,0-2.2-0.9c-0.7-0.7-0.9-2.2-0.9-2.2s-0.2-1.7-0.2-3.5
			V396c0-1.7,0.2-3.5,0.2-3.5s0.2-1.5,0.9-2.2c0.8-0.8,1.9-0.8,2.4-0.9c1.7-0.1,7.4-0.2,7.4-0.2s4.6,0,7.7,0.2c0.4,0,1.4,0,2.2,0.9
			c0.7,0.7,0.9,2.2,0.9,2.2S-255.7,394.2-255.7,396z M-268.9,400.2l5.9-3.1l-5.9-3.1V400.2z"/>
		<path class="st0" d="M-266.8,377.6c10.6,0,19.2,8.6,19.2,19.2c0,10.6-8.6,19.2-19.2,19.2c-10.6,0-19.2-8.6-19.2-19.2
			C-286,386.2-277.4,377.6-266.8,377.6z M-255.8,397.7l0.1-1.7c0-1.8-0.2-3.5-0.2-3.5s-0.2-1.5-0.9-2.2c-0.8-0.9-1.8-0.9-2.2-0.9
			c-3.1-0.2-7.7-0.2-7.7-0.2s-5.7,0.1-7.4,0.2c-0.5,0.1-1.6,0.1-2.4,0.9c-0.7,0.7-0.9,2.2-0.9,2.2s-0.2,1.8-0.2,3.5v1.7
			c0,1.8,0.2,3.5,0.2,3.5s0.2,1.5,0.9,2.2c0.8,0.9,1.8,0.9,2.2,0.9c3.1,0.2,7.6,0.2,7.6,0.2s1.2,0,2.7,0c1.5,0,3.4-0.1,4.9-0.2
			c0.4-0.1,1.4-0.1,2.2-0.9c0.7-0.7,0.9-2.2,0.9-2.2S-255.8,399.4-255.8,397.7z"/>
		<polygon class="st0" points="-263,397.1 -268.9,400.2 -268.9,394 		"/>
	</g>
	<g>
	</g>
</g>
<g>
	<path class="st1" d="M-276,389.9c0.2-0.1,0.3-0.1,0.5-0.1h17.6c0.2,0,0.4,0,0.5,0.1l-7.9,7.4c-0.8,0.8-2.1,0.8-2.9,0L-276,389.9z
		 M-256.6,403.1c0.1-0.2,0.2-0.5,0.2-0.8v-11c0-0.2,0-0.4-0.1-0.6l-7.4,6.9L-256.6,403.1z M-264.5,398.3c-0.6,0.5-1.4,0.8-2.1,0.8
		c-0.8,0-1.5-0.3-2.1-0.8l-7.2,5.4c0.2,0.1,0.4,0.1,0.6,0.1h17.6c0.2,0,0.4,0,0.6-0.1L-264.5,398.3z M-276.8,390.8
		c-0.1,0.2-0.1,0.4-0.1,0.6v11c0,0.3,0.1,0.5,0.2,0.8l7.3-5.4L-276.8,390.8z"/>
</g>
</svg>