<?xml version="1.0" encoding="utf-8"?>
<!-- Generator: Adobe Illustrator 17.1.0, SVG Export Plug-In . SVG Version: 6.00 Build 0)  -->
<!DOCTYPE svg PUBLIC "-//W3C//DTD SVG 1.1//EN" "http://www.w3.org/Graphics/SVG/1.1/DTD/svg11.dtd">
<svg version="1.1" id="Layer_1" xmlns="http://www.w3.org/2000/svg" xmlns:xlink="http://www.w3.org/1999/xlink" x="0px" y="0px"
	 viewBox="0 0 792 612" enable-background="new 0 0 792 612" xml:space="preserve">
<g>
	<g>
		<path fill="#CE6058" d="M472.9,310.9l-9.8,0l0,7.3l2,0c7.2,0,9,2.2,9,11.1l0,2.6c0,5-0.5,8-1.8,9.6c-1.1,1.4-2.4,2-4.9,2.1
			c-1.2,0-1.2,0-4.8,0.1l-10.4,0l-0.1-9.1l10.5,0l0-7.3l-1.8,0c-4.3,0-6.2-0.6-7.4-2.6c-1.2-1.8-1.5-3.8-1.6-8.8l0-2.6
			c0-5.1,0.8-8.5,2.5-10c1.4-1.3,2.7-1.4,8.8-1.4l9.6,0L472.9,310.9z"/>
		<path fill="#CE6058" d="M509.2,328.6c0,3.3,0.6,4.4,2.3,4.4c1.8,0,2.2-1,2.2-4.4l-0.2-26.7l11.2,0l0.2,30.3c0,6.1-0.1,7.4-1,9
			c-1.1,1.9-3,2.4-9.1,2.4c-9,0-10.5-0.6-11.3-4.9c-0.8,4.3-2.2,4.9-11.3,4.9c-6,0-8-0.5-9-2.4c-0.9-1.6-1.1-2.9-1.1-9l-0.2-30.3
			l11.2,0l0.2,26.7c0,3.4,0.5,4.4,2.3,4.4c1.8,0,2.4-1.1,2.4-4.4l-0.2-26.8l11.2,0L509.2,328.6z"/>
		<path fill="#CE6058" d="M555.1,310.9l-10.3,0l0,7.3l10.3,0l0.1,9.1l-10.3,0l0,7.3l10.3,0l0.1,9.1l-10.5,0
			c-5.3-0.1-5.7-0.1-6.7-0.4c-3.5-1-4.4-4-4.5-14.7l-0.1-13.3c0-2.4,0.3-6.6,0.6-8c0.5-2.9,1.8-4.4,4.1-5c1-0.3,1.8-0.3,6.3-0.4
			l10.5,0L555.1,310.9z"/>
		<path fill="#CE6058" d="M584.9,310.9l-10.3,0l0,7.3l10.3,0l0.1,9.1l-10.3,0l0,7.3l10.3,0l0.1,9.1l-10.5,0
			c-5.3-0.1-5.7-0.1-6.7-0.4c-3.5-1-4.4-4-4.5-14.7l-0.1-13.3c0-2.4,0.3-6.6,0.6-8c0.5-2.9,1.8-4.4,4.1-5c1-0.3,1.8-0.3,6.3-0.4
			l10.5,0L584.9,310.9z"/>
		<path fill="#CE6058" d="M612.9,310.9l-5.1,0l0.2,32.7l-11.2,0l-0.2-32.7l-5.1,0l-0.1-9.1l21.4,0L612.9,310.9z"/>
		<path fill="#CE6058" d="M630.2,301.8c0.7,2.5,0.9,3.4,1.1,5.5c1.1-4.3,2.7-5.5,7.6-5.5c4.4,0,5.8,0.6,7.1,3.1
			c0.9,1.6,0.9,1.6,0.9,10.5l0.2,28.2l-11.2,0l-0.2-28.9c0-2.3-0.7-3.3-2.3-3.3c-1.5,0-2.2,1.1-2.2,3.4l0.2,28.7l-11.2,0l-0.2-32.2
			c0-4-0.2-5.9-1.1-9.5L630.2,301.8z"/>
		<path fill="#CE6058" d="M677.1,310.9l-10.3,0l0,7.3l10.3,0l0.1,9.1l-10.3,0l0,7.3l10.3,0l0.1,9.1l-10.5,0
			c-5.3-0.1-5.7-0.1-6.7-0.4c-3.5-1-4.4-4-4.5-14.7l-0.1-13.3c0-2.4,0.3-6.6,0.6-8c0.5-2.9,1.8-4.4,4.1-5c1-0.3,1.8-0.3,6.3-0.4
			l10.5,0L677.1,310.9z"/>
		<path fill="#CE6058" d="M705.6,310.9l-9.8,0l0,7.3l2,0c7.2,0,9,2.2,9,11.1l0,2.6c0,5-0.5,8-1.8,9.6c-1.1,1.4-2.4,2-4.9,2.1
			c-1.2,0-1.2,0-4.8,0.1l-10.4,0l-0.1-9.1l10.5,0l0-7.3l-1.8,0c-4.3,0-6.2-0.6-7.4-2.6c-1.2-1.8-1.5-3.8-1.6-8.8l0-2.6
			c0-5.1,0.8-8.5,2.5-10c1.4-1.3,2.7-1.4,8.8-1.4l9.6,0L705.6,310.9z"/>
		<path fill="#CE6058" d="M734.5,310.9l-9.8,0l0,7.3l2,0c7.2,0,9,2.2,9,11.1l0,2.6c0,5-0.5,8-1.8,9.6c-1.1,1.4-2.4,2-4.9,2.1
			c-1.2,0-1.2,0-4.8,0.1l-10.4,0l-0.1-9.1l10.5,0l0-7.3l-1.8,0c-4.3,0-6.2-0.6-7.4-2.6c-1.2-1.8-1.5-3.8-1.6-8.8l0-2.6
			c0-5.1,0.8-8.5,2.5-10c1.4-1.3,2.7-1.4,8.8-1.4l9.6,0L734.5,310.9z"/>
	</g>
	<g>
		<path fill="#CE6058" d="M589,162.3l-6.5,0V145c0-4.2,3.9-5.8,7.6-5.7l3.1,0c3.7,0,7.6,1.6,7.6,5.8v17.2l-6.5,0v-4.6l-5.4,0V162.3z
			 M594.4,152.9v-5.7c0,0-0.1-2-2.7-2c-2.6,0-2.7,2-2.7,2v5.7L594.4,152.9z"/>
	</g>
	<g>
		<path fill="#CE6058" d="M532.4,282.6c0,3-0.2,4.2-0.7,5.4c-0.7,1.4-1.9,2-4.1,2l-2.2,0c-2.2,0-3.5-0.7-4.1-2
			c-0.6-1.2-0.7-2.4-0.7-5.4v-3.4c0-3,0.2-4.2,0.7-5.4c0.7-1.4,1.9-2,4.1-2l2.2,0c2.2,0,3.5,0.6,4.1,2c0.6,1.2,0.7,2.4,0.7,5.4
			V282.6z M527.5,276.9c0-0.9-0.4-1.5-1-1.5c-0.6,0-1,0.6-1,1.4v7.9c0,0.9,0.4,1.5,1,1.5s1-0.5,1-1.4V276.9z"/>
		<path fill="#CE6058" d="M542.6,275.8l-3.1,0v3.2l3.1,0v4l-3.1,0v7.2l-4.9,0v-18.3l8,0V275.8z"/>
	</g>
	<g>
		<path fill="#CE6058" d="M546.6,405.1c-0.4,0-0.8-0.1-1.2-0.2c-26.4-9-49.6-25.3-67-47.2c-1.3-1.6-1-4,0.6-5.3c1.6-1.3,4-1,5.3,0.6
			c16.5,20.8,38.5,36.3,63.6,44.8c2,0.7,3,2.8,2.3,4.7C549.6,404.1,548.1,405.1,546.6,405.1z"/>
	</g>
	<g>
		<path fill="#CE6058" d="M639.1,404.5c-1.5,0-3-1-3.5-2.5c-0.7-1.9,0.3-4.1,2.3-4.8c24.4-8.6,45.9-23.9,62.1-44.3
			c1.3-1.6,3.6-1.9,5.3-0.6c1.6,1.3,1.9,3.6,0.6,5.3c-17.1,21.5-39.7,37.6-65.4,46.7C640,404.5,639.6,404.5,639.1,404.5z"/>
	</g>
	<g>
		<path fill="#CE6058" d="M684.2,161.7c-0.9,0-1.7-0.3-2.4-0.9c-24.9-21.4-56.8-33.2-89.7-33.2c-26,0-51.3,7.3-73.2,21.1
			c-1.7,1.1-4.1,0.6-5.2-1.2c-1.1-1.7-0.6-4.1,1.2-5.2c23.1-14.5,49.8-22.2,77.2-22.2c34.7,0,68.3,12.4,94.6,35
			c1.6,1.3,1.7,3.7,0.4,5.3C686.3,161.2,685.3,161.7,684.2,161.7z"/>
	</g>
	<g>
		<path fill="#CE6058" d="M573.8,189.1c3.2-1.4,6.8-2.6,10.7-3.5c1.5-0.3,3.1-0.6,4.6-0.9c16.6-2.7,32.5-0.8,32.6-0.7
			c1.7,0.3,3-0.9,2.8-2.6c-0.1-1.7-1.6-3.4-3.3-3.7c-0.2,0-20-2.9-39.6,1.7c-10,1.6-19.5,1.2-28.9-1.2c-10.7-2.8-20.1-7.8-29.1-12.7
			c-8.5-4.6-16.5-8.9-25.2-11.2c-4-1-7.8-1.5-11.7-1.5c-18.7,0-33.9,15.2-33.9,33.9c0,5.2,1.1,10.1,3.3,14.8
			c-12.3,8.1-19.7,21.7-19.7,36.5c0,11.7,4.6,22.9,12.8,31.4c5.9,6,13.2,10.3,21.1,12.4c3.6,0.9,7.4,1.4,11.2,1.4
			c16.5,0,30.9-12,39.5-32.8c1-2.5,1.9-4.9,2.9-7.5l0-0.1C530.7,225,538.3,204.8,573.8,189.1z M464.3,204.8c5.4-2.7,11.2-4,17.2-4
			c5.6,0,10.9,2.2,14.7,6.1c1.6,1.7,2.9,3.6,3.9,5.7c-4.1,2.2-8.8,3.3-13.5,3.3c-2.4,0-4.9-0.3-7.2-0.9c-4.9-1.3-9.3-3.8-12.8-7.5
			C465.8,206.7,465,205.8,464.3,204.8z M462.9,211.4c4.6,4.8,10.3,8.1,16.6,9.7c2.8,0.7,5.8,1.1,8.7,1.1c4.8,0,9.3-0.9,13.6-2.8
			c0,0.5,0.1,1,0.1,1.5c0,12-9.8,21.8-21.9,21.8c-1.6,0-2.6,1.4-2.2,3.2c0.4,1.4,1.6,2.7,3,3.1c0.3,0.1,0.5,0.1,0.8,0.1
			c14.6,0,26.5-11.9,26.5-26.6c0-2.1-0.2-4.1-0.7-6.2c4.7-3.2,8.5-7.6,11.1-12.7c0.7-1.4,0-3.4-1.6-4.5c-0.4-0.3-0.8-0.5-1.3-0.6
			c-1.2-0.3-2.3,0.1-2.8,1.1c-1.9,3.8-4.7,7.2-8,9.8c-1.3-2.4-2.9-4.6-4.8-6.6c-3.7-3.8-8.2-6.4-13.1-7.7c-2.2-0.6-4.6-0.9-6.9-0.9
			c-6.7,0-13.1,1.5-19,4.4c-1.3-3.3-2-6.8-2-10.5c0-16.1,13.1-29.2,29.2-29.2c3.3,0,6.6,0.4,10.1,1.3c8,2.1,15.6,6.2,23.6,10.5
			c9.4,5.1,19.1,10.3,30.8,13.3c3.7,0.9,7.2,1.6,10.9,2c-31.5,15.9-38.9,35.6-45.4,53c-1,2.6-1.9,5.1-2.9,7.5
			C507.4,266,494.6,277,480,277c-3.3,0-6.5-0.4-9.6-1.2c-6.6-1.7-12.6-5.2-17.4-10.1c-6.7-6.9-10.4-16.2-10.4-26
			c0-12.9,6.4-24.8,17-32.1C460.6,208.9,461.7,210.2,462.9,211.4z"/>
		<path fill="#CE6058" d="M568.7,217.9c-1.2-2.6-3-4.5-5.3-5.6c-0.5-0.3-1.1-0.5-1.7-0.6c-8.3-2.1-18,7.9-23.2,19
			c-4.8,10.2-6,20.4-3.1,26.8c1.2,2.6,3,4.5,5.3,5.6c0.5,0.3,1.1,0.5,1.7,0.6c8.3,2.1,18-7.9,23.2-19
			C570.4,234.5,571.6,224.2,568.7,217.9z M561.7,217.8c0.1,0,0.3,0.1,0.4,0.1c0.2,0.1,0.7,0.3,1.1,1.4c1.6,3.6,1.3,11.8-3.3,21.5
			c-5.3,11.1-13.5,17.7-17.6,16.7c-0.1,0-0.3-0.1-0.4-0.1c-0.2-0.1-0.7-0.3-1.1-1.4c-1.6-3.6-1.3-11.8,3.3-21.5
			C549.4,223.3,557.6,216.7,561.7,217.8z"/>
		<path fill="#CE6058" d="M739.9,236c-1.3-0.8-2.7-1.4-4.2-1.8c-9.4-2.4-20.2,4.8-31.6,12.4c-10.7,7.1-22.5,15.4-31.1,12.2
			c-5.9-2.1,2.6-13,7.1-18.4c8.5-10.2,13.5-16.8,10.9-22.8c-1.2-2.7-3.6-4.7-7.3-5.8c-5-1.5-10.1-0.8-15.2,2.3
			c1.8-3.7,3.8-7.8,5.9-11.7c23.7-1,38.5-11.6,42.7-21.6c1.8-4.4,1.6-8.6-0.8-11.9c-1-1.4-3-3.3-6.3-4.2c-1.2-0.3-2.6-0.5-4-0.5
			c-16.5,0-27.4,16.1-36,31.9c-4.5,0-9.3-0.3-14.2-1c-1.4-0.2-2.8-0.4-4.2-0.6c-1.9-0.3-3.9-0.6-5.9-0.8c-1.8-0.2-3.5-0.4-5.3-0.7
			c-24.9-3.1-50.7-6.3-70.1,9c-0.6,0.4-0.9,1.1-0.8,2s0.4,1.7,1,2.4c0.6,0.7,1.3,1.2,2.1,1.4c0.8,0.2,1.6,0.1,2.2-0.4
			c18-14.2,42.9-11.1,67-8c1.6,0.2,3.1,0.4,4.6,0.6c1.9,0.2,3.8,0.5,5.8,0.8c1.4,0.2,2.9,0.4,4.3,0.6c3.5,0.5,6.9,0.8,10.2,0.9
			c-2.4,4.8-4.8,9.8-7.1,14.7l-1.3,2.8l-1.2,2.5c-9.5,18.5-28.8,37.4-36.2,35.5c-0.1,0-0.1,0-0.2,0c-0.6-0.2-1.1-0.6-1.5-1.3
			c-1.9-3.6-0.5-12.5,3.2-20.3c5.6-11.7,13.7-18.4,17.9-17.3c0.1,0,0.1,0,0.2,0c0.7,0.2,1.2,0.6,1.5,1.2c0.6,1.3,0.3,3.2-0.8,5.1
			c-0.4,0.6-0.5,1.4-0.2,2.3s0.8,1.6,1.5,2.2c0.4,0.3,0.9,0.6,1.4,0.7c1.2,0.3,2.2-0.1,2.7-1c2.1-3.5,2.4-7.5,0.7-10.9
			c-1.3-2.7-3.7-4.7-6.5-5.6c-8.8-2.8-18.7,8.1-24,19.3c-6.2,12-14.4,25.3-19.4,24.6c-2.3-0.3,0.4-8.5,1.6-11.4l0.1-0.2
			c0,0,0-0.1,0-0.1c0.6-1.3,1.2-2.5,1.8-3.7l11.4-23.9c0.3-0.7,0.3-1.5,0-2.3c-0.3-0.8-0.9-1.6-1.6-2.1c-0.4-0.3-0.8-0.4-1.2-0.6
			c-1.2-0.3-2.3,0.1-2.8,1.1l-11.3,23.8c-0.8,1.6-1.6,3.2-2.3,4.8c-5.4,11.1-10.1,16-14.4,15c-0.8-0.2-1.3-0.6-1.7-1.3
			c-1.7-3,0.1-10.9,4.7-20.7l8.5-17.7c0.7-1.4-0.1-3.4-1.6-4.4c-0.4-0.3-0.8-0.4-1.2-0.6c-1.2-0.3-2.3,0.1-2.8,1.1l-8.4,17.7
			c-8.4,17.6-6.1,25.3-4,28.4c0.9,1.3,2.5,2.9,5.1,3.6c0.8,0.2,1.6,0.3,2.5,0.3c4.1,0,7.6-1.5,10.9-5c0.2,0.6,0.5,1.1,0.8,1.6
			c0.6,0.9,2,2.5,4.4,3.1c0.7,0.2,1.4,0.3,2.1,0.3c3.8,0,8.6-3.8,14.2-11.2c0.1,2.8,0.7,5.1,1.8,7.1c1.3,2.4,3.2,4.1,5.5,4.9
			c5.8,1.9,12.5-0.5,20-7.1c-0.7,1.6-1,2.7-1.1,2.8c-0.5,1.4,0.3,3.3,1.8,4.3c0.4,0.2,0.7,0.4,1.1,0.5c1.2,0.3,2.3-0.1,2.8-1.1
			c0,0,18.7-51.3,37.7-46.5c5.9,1.5-1.6,12.1-6.7,18.2c-7.5,9-14,16.8-11.3,23.5c1.1,2.7,3.4,4.8,6.9,6c0.6,0.2,1.2,0.4,1.8,0.6
			c11.3,2.9,23.8-5.4,35.9-13.5c10.1-6.7,20.5-13.7,27.4-11.9c0.8,0.2,1.5,0.5,2.1,0.9c2.7,1.7,3.9,4,3.7,7.1
			c-0.8,12.1-22.8,32.4-67.7,31.2l0,0l-116.4,0.1c-0.8,0-1.5,0.3-1.9,0.9c-0.4,0.6-0.5,1.4-0.3,2.2c0.4,1.4,1.6,2.7,3,3.1
			c0.3,0.1,0.5,0.1,0.8,0.1l116.3-0.1c52.2,0,72.4-25.8,72.4-37C747.7,242,745.2,239.4,739.9,236z M711.8,171.8
			c0.6,0.8,0.7,2.8-0.4,5.3c-3.3,7.8-14.8,16.5-33.3,18.5c6.9-12,16.4-25.1,29.4-25.1c0.9,0,1.7,0.1,2.4,0.3
			C710.8,171.1,711.5,171.4,711.8,171.8z"/>
	</g>
	<path fill="#CE6058" d="M619.7,401.4h-16.1c-0.9,0-1.3-1.1-0.7-1.7l11.4-11.5c1.4-1.4,1.6-3.7,0.4-5.2c-1.4-1.7-4-1.8-5.5-0.3
		l-11.6,11.6c-0.6,0.6-1.7,0.2-1.7-0.7l-0.1-16.2c0-2-1.4-3.7-3.4-3.9c-2.2-0.2-4.1,1.5-4.1,3.7v16.3c0,0.9-1.1,1.3-1.7,0.7
		l-11.6-11.5c-1.5-1.5-4.1-1.5-5.5,0.3c-1.3,1.5-1,3.8,0.4,5.2l11.4,11.5c0.6,0.6,0.2,1.7-0.7,1.7h-16.1c-2,0-3.7,1.4-3.9,3.4
		c-0.2,2.2,1.5,4.1,3.7,4.1h16.3c0.9,0,1.3,1.1,0.7,1.7L569.9,422c-1.5,1.5-1.6,4.1,0,5.6c0.7,0.7,1.6,1,2.5,1c1,0,1.9-0.4,2.6-1.1
		l11.6-11.5c0.6-0.6,1.7-0.2,1.7,0.7v16.1c0,2,1.4,3.7,3.4,3.9c2.2,0.2,4.1-1.5,4.1-3.7v-16.3c0-0.9,1.1-1.3,1.7-0.7l11.6,11.5
		c0.7,0.7,1.7,1.1,2.6,1.1c0.9,0,1.8-0.3,2.5-1c1.6-1.5,1.5-4,0-5.6l-11.4-11.4c-0.9-0.9-0.6-1.7,0.7-1.7l16.4-0.1
		c2.2,0,3.9-1.9,3.7-4.1C623.4,402.9,621.7,401.4,619.7,401.4z"/>
</g>
<path fill="#CE6058" d="M671.6,551.3H663c-0.5,0-0.7-0.6-0.4-0.9l6.1-6.1c0.7-0.7,0.9-2,0.2-2.8c-0.8-0.9-2.1-1-2.9-0.1l-6.2,6.2
	c-0.3,0.3-0.9,0.1-0.9-0.4l0-8.6c0-1.1-0.8-2-1.8-2.1c-1.2-0.1-2.2,0.8-2.2,2v8.7c0,0.5-0.6,0.7-0.9,0.4l-6.2-6.2
	c-0.8-0.8-2.2-0.8-2.9,0.1c-0.7,0.8-0.5,2,0.2,2.8l6.1,6.1c0.3,0.3,0.1,0.9-0.4,0.9h-8.6c-1.1,0-2,0.8-2.1,1.8
	c-0.1,1.2,0.8,2.2,2,2.2h8.7c0.5,0,0.7,0.6,0.4,0.9l-6.1,6.1c-0.8,0.8-0.9,2.2,0,3c0.4,0.3,0.9,0.5,1.3,0.5c0.5,0,1-0.2,1.4-0.6
	l6.2-6.2c0.3-0.3,0.9-0.1,0.9,0.4v8.6c0,1.1,0.8,2,1.8,2.1c1.2,0.1,2.2-0.8,2.2-2v-8.7c0-0.5,0.6-0.7,0.9-0.4l6.2,6.2
	c0.4,0.4,0.9,0.6,1.4,0.6c0.5,0,1-0.2,1.3-0.5c0.8-0.8,0.8-2.2,0-3l-6.1-6.1c-0.5-0.5-0.3-0.9,0.4-0.9l8.7,0c1.2,0,2.1-1,2-2.2
	C673.6,552.1,672.6,551.3,671.6,551.3z"/>
<path fill="#CE6058" d="M612.2,553c0.2,1.7-1.2,3.2-2.9,3.2l-12.8,0c-1,0-1.3,0.6-0.5,1.3l8.9,8.9c1.2,1.2,1.3,3.2,0,4.4
	c-0.6,0.5-1.3,0.8-2,0.8c-0.7,0-1.5-0.3-2.1-0.9l-9.1-9c-0.5-0.5-1.3-0.1-1.3,0.5V575c0,1.7-1.5,3.1-3.2,2.9
	c-1.5-0.1-2.7-1.5-2.7-3.1v-12.6c0-0.7-0.8-1-1.3-0.5l-9.1,9c-0.6,0.6-1.3,0.9-2.1,0.9c-0.7,0-1.4-0.3-2-0.8c-1.2-1.1-1.2-3.2,0-4.4
	l8.9-9c0.5-0.5,0.1-1.3-0.5-1.3h-12.8c-1.7,0-3.1-1.5-2.9-3.2c0.1-1.5,1.5-2.7,3.1-2.7h12.6c0.7,0,1-0.8,0.5-1.3l-8.9-9
	c-1.1-1.1-1.3-2.9-0.3-4.1c1.1-1.3,3.1-1.4,4.3-0.2l9.1,9c0.5,0.5,1.3,0.1,1.3-0.5v-12.8c0-1.7,1.5-3.1,3.2-2.9
	c1.5,0.1,2.7,1.5,2.7,3.1l0,12.6c0,0.7,0.8,1,1.3,0.5l9-9c1.2-1.2,3.2-1.1,4.3,0.2c1,1.2,0.8,3-0.3,4.1l-8.9,9
	c-0.5,0.5-0.1,1.3,0.5,1.3h12.6C610.7,550.4,612.1,551.5,612.2,553z M621.5,553.3c0-18.7-15.2-33.9-33.9-33.9s-33.9,15.2-33.9,33.9
	s15.2,33.9,33.9,33.9S621.5,572,621.5,553.3z M616.1,553.3c0,15.8-12.8,28.6-28.6,28.6c-15.8,0-28.6-12.8-28.6-28.6
	c0-15.8,12.8-28.6,28.6-28.6C603.3,524.7,616.1,537.5,616.1,553.3z"/>
<g>
	<path fill="#CE6058" d="M63.3,81.1h-8.4V56.3c0-2.7,0.5-4.4,1.5-5.2c1-0.8,2.9-1.2,7-1.2h3.4c4.1,0,6,0.3,7,1.2
		c1,0.8,1.5,2.5,1.5,5.2v24.9h-8.4v-6.6h-3.5V81.1z M66.8,67.6v-8.2c0-2-0.6-2.9-1.8-2.9c-1.2,0-1.7,0.9-1.7,2.9v8.2H66.8z"/>
	<path fill="#CE6058" d="M107.5,56.7h-3.8v24.4h-8.4V56.7h-3.8v-6.8h16V56.7z"/>
	<path fill="#CE6058" d="M131.3,68.4c0,5.2-0.3,7.2-1.3,9.3c-1.1,2.3-3.3,3.4-7,3.4h-3.7c-3.7,0-5.9-1.1-7-3.4
		c-1-2.1-1.3-4.1-1.3-9.3v-5.9c0-5.2,0.3-7.2,1.3-9.3c1.1-2.3,3.3-3.4,7-3.4h3.7c3.7,0,5.9,1,7,3.4c1,2.1,1.3,4.1,1.3,9.3V68.4z
		 M123,58.9c0-1.5-0.7-2.5-1.8-2.5c-1.1,0-1.8,1-1.8,2.5v13.4c0,1.5,0.7,2.5,1.8,2.5c1.1,0,1.8-0.9,1.8-2.5V58.9z"/>
	<path fill="#CE6058" d="M156.1,49.9v24.9c0,2.7-0.5,4.4-1.5,5.2c-1,0.8-2.9,1.2-7,1.2h-3.4c-4.1,0-6-0.3-7-1.2
		c-1-0.8-1.5-2.5-1.5-5.2V49.9h8.4v21.8c0,2,0.6,2.9,1.7,2.9c1.2,0,1.8-0.9,1.8-2.9V49.9H156.1z"/>
	<path fill="#CE6058" d="M174.3,56.7h-1.5c-2.2,0-2.6,0-3.1,0.6c-0.6,0.6-0.6,0.9-0.6,3.2v10.1c0,2.2,0.1,2.6,0.6,3.2
		c0.6,0.6,0.9,0.6,3.1,0.6h1.7v6.8H169c-4,0-4.3-0.1-5-0.3c-2.6-0.7-3.3-3-3.3-11v-10c0-1.8,0.2-5,0.5-6c0.4-2.2,1.4-3.3,3.1-3.7
		c0.7-0.2,1.3-0.2,4.7-0.3h5.3V56.7z"/>
	<path fill="#CE6058" d="M186.9,49.9v12.2h3.6V49.9h8.4v31.2h-8.4V68.9h-3.6v12.2h-8.4V49.9H186.9z"/>
	<path fill="#CE6058" d="M236.7,68.4c0,5.2-0.3,7.2-1.3,9.3c-1.1,2.3-3.3,3.4-7,3.4h-3.7c-3.7,0-5.9-1.1-7-3.4
		c-1-2.1-1.3-4.1-1.3-9.3v-5.9c0-5.2,0.3-7.2,1.3-9.3c1.1-2.3,3.3-3.4,7-3.4h3.7c3.7,0,5.9,1,7,3.4c1,2.1,1.3,4.1,1.3,9.3V68.4z
		 M228.4,58.9c0-1.5-0.7-2.5-1.8-2.5s-1.8,1-1.8,2.5v13.4c0,1.5,0.7,2.5,1.8,2.5s1.8-0.9,1.8-2.5V58.9z"/>
	<path fill="#CE6058" d="M254.9,56.7h-5.3v5.4h5.3v6.8h-5.3v12.2h-8.4V49.9h13.7V56.7z"/>
	<path fill="#CE6058" d="M287.4,56.7H280v5.4h1.5c5.4,0,6.7,1.6,6.7,8.3v1.9c0,3.7-0.4,6-1.4,7.2c-0.8,1.1-1.8,1.5-3.7,1.6
		c-0.9,0-0.9,0-3.6,0h-7.8v-6.8h7.8v-5.4h-1.3c-3.2,0-4.6-0.5-5.5-2c-0.9-1.4-1.1-2.8-1.1-6.6v-1.9c0-3.8,0.7-6.4,1.9-7.4
		c1.1-0.9,2.1-1.1,6.6-1.1h7.2V56.7z"/>
	<path fill="#CE6058" d="M312.5,69.9c0,2.5,0.4,3.3,1.7,3.3s1.7-0.7,1.7-3.3v-20h8.4v22.7c0,4.5-0.1,5.5-0.8,6.7
		c-0.8,1.5-2.2,1.8-6.8,1.8c-6.7,0-7.8-0.5-8.4-3.7c-0.6,3.2-1.6,3.7-8.5,3.7c-4.5,0-5.9-0.4-6.7-1.8c-0.7-1.2-0.8-2.2-0.8-6.7V49.9
		h8.4v20c0,2.6,0.4,3.3,1.7,3.3c1.4,0,1.8-0.8,1.8-3.3v-20h8.4V69.9z"/>
	<path fill="#CE6058" d="M345.1,56.7h-7.7v5.4h7.7v6.8h-7.7v5.4h7.7v6.8h-7.8c-4,0-4.3-0.1-5-0.3c-2.6-0.7-3.3-3-3.3-11v-10
		c0-1.8,0.2-4.9,0.5-6c0.4-2.2,1.4-3.3,3.1-3.7c0.7-0.2,1.3-0.2,4.7-0.3h7.8V56.7z"/>
	<path fill="#CE6058" d="M365.5,56.7h-7.7v5.4h7.7v6.8h-7.7v5.4h7.7v6.8h-7.8c-4,0-4.3-0.1-5-0.3c-2.6-0.7-3.3-3-3.3-11v-10
		c0-1.8,0.2-4.9,0.5-6c0.4-2.2,1.4-3.3,3.1-3.7c0.7-0.2,1.3-0.2,4.7-0.3h7.8V56.7z"/>
	<path fill="#CE6058" d="M384.5,56.7h-3.8v24.4h-8.4V56.7h-3.8v-6.8h16V56.7z"/>
	<path fill="#CE6058" d="M395.6,49.9c0.5,1.9,0.7,2.5,0.8,4.1c0.8-3.2,2.1-4.1,5.7-4.1c3.3,0,4.4,0.5,5.3,2.3
		c0.7,1.2,0.7,1.2,0.7,7.8v21.1h-8.4V59.6c0-1.7-0.5-2.5-1.7-2.5c-1.1,0-1.7,0.8-1.7,2.6v21.5h-8.4V57c0-3-0.1-4.4-0.8-7.1H395.6z"
		/>
	<path fill="#CE6058" d="M428.7,56.7H421v5.4h7.7v6.8H421v5.4h7.7v6.8h-7.8c-4,0-4.3-0.1-5-0.3c-2.6-0.7-3.3-3-3.3-11v-10
		c0-1.8,0.2-4.9,0.5-6c0.4-2.2,1.4-3.3,3.1-3.7c0.7-0.2,1.3-0.2,4.7-0.3h7.8V56.7z"/>
	<path fill="#CE6058" d="M448.2,56.7h-7.3v5.4h1.5c5.4,0,6.7,1.6,6.7,8.3v1.9c0,3.7-0.4,6-1.4,7.2c-0.8,1.1-1.8,1.5-3.7,1.6
		c-0.9,0-0.9,0-3.6,0h-7.8v-6.8h7.8v-5.4h-1.3c-3.2,0-4.6-0.5-5.5-2c-0.9-1.4-1.1-2.8-1.1-6.6v-1.9c0-3.8,0.7-6.4,1.9-7.4
		c1.1-0.9,2.1-1.1,6.6-1.1h7.2V56.7z"/>
	<path fill="#CE6058" d="M467.9,56.7h-7.3v5.4h1.5c5.4,0,6.7,1.6,6.7,8.3v1.9c0,3.7-0.4,6-1.4,7.2c-0.8,1.1-1.8,1.5-3.7,1.6
		c-0.9,0-0.9,0-3.6,0h-7.8v-6.8h7.8v-5.4h-1.3c-3.2,0-4.6-0.5-5.5-2c-0.9-1.4-1.1-2.8-1.1-6.6v-1.9c0-3.8,0.7-6.4,1.9-7.4
		c1.1-0.9,2.1-1.1,6.6-1.1h7.2V56.7z"/>
</g>
<g>
	<path fill="#CE6058" d="M68.5,139H67c-2.2,0-2.6,0-3.1,0.6c-0.6,0.6-0.6,0.9-0.6,3.2v10.1c0,2.2,0.1,2.6,0.6,3.2
		c0.6,0.6,0.9,0.6,3.1,0.6h1.7v6.8h-5.6c-4,0-4.3-0.1-5-0.3c-2.6-0.7-3.3-3-3.3-11v-10c0-1.8,0.2-5,0.5-6c0.4-2.2,1.4-3.3,3.1-3.7
		c0.7-0.2,1.3-0.2,4.7-0.3h5.3V139z"/>
	<path fill="#CE6058" d="M81.1,163.4h-8.4v-24.9c0-2.7,0.5-4.4,1.5-5.2c1-0.8,2.9-1.2,7-1.2h3.4c4.1,0,6,0.3,7,1.2s1.5,2.5,1.5,5.2
		v24.9h-8.4v-6.6h-3.5V163.4z M84.6,149.9v-8.2c0-2-0.6-2.9-1.8-2.9c-1.2,0-1.7,0.9-1.7,2.9v8.2H84.6z"/>
	<path fill="#CE6058" d="M106.3,132.2v12.2h1.2c1.9,0,2.3-0.8,2.3-4.5v-3.6c0-1.8,0.2-2.8,0.7-4.1h8.3c-0.6,1.5-0.7,2.2-0.7,5v3.7
		c0,2.9-0.2,3.7-1.2,4.8c-0.8,1-1.6,1.3-3.9,1.7l-0.6,0.1l1,0.1c3.5,0.6,4.7,2.1,4.7,5.8v4.4c0,3,0.1,3.7,0.7,5.6h-8.1
		c-0.8-1.5-1-2.4-1-5.5v-2.9c0-2.9-0.6-3.9-2.4-3.9h-1.1v12.2h-8.4v-31.2H106.3z"/>
	<path fill="#CE6058" d="M138.9,139h-7.7v5.4h7.7v6.8h-7.7v5.4h7.7v6.8h-7.8c-4,0-4.3-0.1-5-0.3c-2.6-0.7-3.3-3-3.3-11v-10
		c0-1.8,0.2-4.9,0.5-6c0.4-2.2,1.4-3.3,3.1-3.7c0.7-0.2,1.3-0.2,4.7-0.3h7.8V139z"/>
	<path fill="#CE6058" d="M170.9,139h-3.8v24.4h-8.4V139h-3.8v-6.8h16V139z"/>
	<path fill="#CE6058" d="M183,163.4h-8.4v-24.9c0-2.7,0.5-4.4,1.5-5.2c1-0.8,2.9-1.2,7-1.2h3.4c4.1,0,6,0.3,7,1.2s1.5,2.5,1.5,5.2
		v24.9h-8.4v-6.6H183V163.4z M186.5,149.9v-8.2c0-2-0.6-2.9-1.8-2.9c-1.2,0-1.7,0.9-1.7,2.9v8.2H186.5z"/>
	<path fill="#CE6058" d="M214.7,139h-7.4v5.4h1.5c5.4,0,6.7,1.6,6.7,8.3v1.9c0,3.7-0.4,6-1.4,7.2c-0.8,1.1-1.8,1.5-3.7,1.6
		c-0.9,0-0.9,0-3.6,0h-7.8v-6.8h7.8v-5.4h-1.3c-3.2,0-4.6-0.5-5.5-2c-0.9-1.4-1.1-2.8-1.1-6.6v-1.9c0-3.8,0.7-6.4,1.9-7.4
		c1.1-0.9,2.1-1.1,6.6-1.1h7.2V139z"/>
	<path fill="#CE6058" d="M234.4,139h-3.8v24.4h-8.4V139h-3.8v-6.8h16V139z"/>
	<path fill="#CE6058" d="M246.1,132.2v31.2h-8.4v-31.2H246.1z"/>
	<path fill="#CE6058" d="M258.7,132.2c0.5,1.9,0.7,2.5,0.8,4.1c0.8-3.2,2.1-4.1,5.7-4.1c3.3,0,4.4,0.5,5.3,2.3
		c0.7,1.2,0.7,1.2,0.7,7.8v21.1h-8.4v-21.6c0-1.7-0.5-2.5-1.7-2.5c-1.1,0-1.7,0.8-1.7,2.6v21.5h-8.4v-24.1c0-3-0.1-4.4-0.8-7.1
		H258.7z"/>
	<path fill="#CE6058" d="M296.1,156.5c0,3.8-0.2,4.9-1.3,5.8c-1.1,0.9-2.2,1.1-7,1.1h-3.5c-3.3,0-4.3,0-5.2-0.3
		c-2.1-0.5-2.9-1.5-3.1-4.1c0-0.6,0-0.6-0.1-6.5v-9.4c0-5.6,0.5-8.3,1.6-9.6c1.1-1.2,2.5-1.5,6.8-1.5h11.8v7.7
		c-1.4-0.5-3.9-0.9-6.1-0.9H287c-2.6,0-2.8,0.2-2.8,2.9v11.1c0,3.4,0.2,3.7,2.1,3.7h1.4v-7.5c0-1.2-0.2-2.2-0.7-3.5h9V156.5z"/>
	<path fill="#CE6058" d="M315.6,139h-7.4v5.4h1.5c5.4,0,6.7,1.6,6.7,8.3v1.9c0,3.7-0.4,6-1.4,7.2c-0.8,1.1-1.8,1.5-3.7,1.6
		c-0.9,0-0.9,0-3.6,0H300v-6.8h7.8v-5.4h-1.3c-3.2,0-4.6-0.5-5.5-2c-0.9-1.4-1.1-2.8-1.1-6.6v-1.9c0-3.8,0.7-6.4,1.9-7.4
		c1.1-0.9,2.1-1.1,6.6-1.1h7.2V139z"/>
</g>
<g>
	<path fill="#CE6058" d="M68.5,221.2H67c-2.2,0-2.6,0-3.1,0.6c-0.6,0.6-0.6,0.9-0.6,3.2v10.1c0,2.2,0.1,2.6,0.6,3.2
		c0.6,0.6,0.9,0.6,3.1,0.6h1.7v6.8h-5.6c-4,0-4.3-0.1-5-0.3c-2.6-0.7-3.3-3-3.3-11v-10c0-1.8,0.2-5,0.5-6c0.4-2.2,1.4-3.3,3.1-3.7
		c0.7-0.2,1.3-0.2,4.7-0.3h5.3V221.2z"/>
	<path fill="#CE6058" d="M92.9,214.5v24.9c0,2.7-0.5,4.4-1.5,5.2c-1,0.8-2.9,1.2-7,1.2H81c-4.1,0-6-0.3-7-1.2
		c-1-0.8-1.5-2.5-1.5-5.2v-24.9H81v21.8c0,2,0.6,2.9,1.7,2.9c1.2,0,1.8-0.9,1.8-2.9v-21.8H92.9z"/>
	<path fill="#CE6058" d="M112.6,221.2h-7.4v5.4h1.5c5.4,0,6.7,1.6,6.7,8.3v1.9c0,3.7-0.4,6-1.4,7.2c-0.8,1.1-1.8,1.5-3.7,1.6
		c-0.9,0-0.9,0-3.6,0H97v-6.8h7.8v-5.4h-1.3c-3.2,0-4.6-0.5-5.5-2c-0.9-1.4-1.1-2.8-1.1-6.6V223c0-3.8,0.7-6.4,1.9-7.4
		c1.1-0.9,2.1-1.1,6.6-1.1h7.2V221.2z"/>
	<path fill="#CE6058" d="M132.3,221.2h-3.8v24.4h-8.4v-24.4h-3.8v-6.8h16V221.2z"/>
	<path fill="#CE6058" d="M156.1,233c0,5.2-0.3,7.2-1.3,9.3c-1.1,2.3-3.3,3.4-7,3.4h-3.7c-3.7,0-5.9-1.1-7-3.4
		c-1-2.1-1.3-4.1-1.3-9.3v-5.9c0-5.2,0.3-7.2,1.3-9.3c1.1-2.3,3.3-3.4,7-3.4h3.7c3.7,0,5.9,1,7,3.4c1,2.1,1.3,4.1,1.3,9.3V233z
		 M147.7,223.4c0-1.5-0.7-2.5-1.8-2.5c-1.1,0-1.8,1-1.8,2.5v13.4c0,1.5,0.7,2.5,1.8,2.5c1.1,0,1.8-0.9,1.8-2.5V223.4z"/>
	<path fill="#CE6058" d="M168.4,214.5c0.5,1.8,0.6,2.4,0.8,4.1c0.8-3.2,2.1-4.1,5.9-4.1c2.4,0,3.5,0.2,4.3,0.9
		c0.8,0.7,1.3,1.5,1.7,3.2c0.9-3.3,2.2-4.1,6-4.1c4.6,0,5.7,1.1,5.7,6.2v25h-8.4v-21.1c0-2.2-0.4-2.9-1.7-2.9s-1.7,0.8-1.7,2.9v21.1
		h-8.4v-21.6c0-1.7-0.6-2.5-1.7-2.5c-1.1,0-1.7,0.8-1.7,2.6v21.5h-8.4v-24.1c0-3-0.2-4.4-0.8-7.1H168.4z"/>
	<path fill="#CE6058" d="M222.3,214.5c3.4,0,3.4,0,4,0.1c1.9,0.3,3.1,1.1,3.7,2.4c0.5,1.1,0.7,4,0.7,7.9v8.4c0,3.2-0.2,6.5-0.5,8.2
		c-0.4,2.5-1.8,3.8-4.1,4c-0.2,0-0.9,0-3.9,0.1h-11.8v-31.2H222.3z M220.4,238.8c1.7,0,2.1-0.5,2.1-2.7V224c0-2.3-0.3-2.8-2.1-2.8
		h-1.5v17.6H220.4z"/>
	<path fill="#CE6058" d="M251.2,221.2h-7.7v5.4h7.7v6.8h-7.7v5.4h7.7v6.8h-7.8c-4,0-4.3-0.1-5-0.3c-2.6-0.7-3.3-3-3.3-11v-10
		c0-1.8,0.2-4.9,0.5-6c0.4-2.2,1.4-3.3,3.1-3.7c0.7-0.2,1.3-0.2,4.7-0.3h7.8V221.2z"/>
	<path fill="#CE6058" d="M270.7,221.2h-7.4v5.4h1.5c5.4,0,6.7,1.6,6.7,8.3v1.9c0,3.7-0.4,6-1.4,7.2c-0.8,1.1-1.8,1.5-3.7,1.6
		c-0.9,0-0.9,0-3.6,0h-7.8v-6.8h7.8v-5.4h-1.3c-3.2,0-4.6-0.5-5.5-2c-0.9-1.4-1.1-2.8-1.1-6.6V223c0-3.8,0.7-6.4,1.9-7.4
		c1.1-0.9,2.1-1.1,6.6-1.1h7.2V221.2z"/>
	<path fill="#CE6058" d="M283.9,214.5v31.2h-8.4v-31.2H283.9z"/>
	<path fill="#CE6058" d="M308.7,238.7c0,3.8-0.2,4.9-1.3,5.8c-1.1,0.9-2.2,1.1-7,1.1H297c-3.3,0-4.3,0-5.2-0.3
		c-2.1-0.5-2.9-1.5-3.1-4.1c0-0.6,0-0.6-0.1-6.5v-9.4c0-5.6,0.5-8.3,1.6-9.6c1.1-1.2,2.5-1.5,6.8-1.5h11.8v7.7
		c-1.4-0.5-3.9-0.9-6.1-0.9h-2.9c-2.6,0-2.8,0.2-2.8,2.9v11.1c0,3.4,0.2,3.7,2.1,3.7h1.4v-7.5c0-1.2-0.2-2.2-0.7-3.5h9V238.7z"/>
	<path fill="#CE6058" d="M321,214.5c0.5,1.9,0.7,2.5,0.8,4.1c0.8-3.2,2.1-4.1,5.7-4.1c3.3,0,4.4,0.5,5.3,2.3
		c0.7,1.2,0.7,1.2,0.7,7.8v21.1h-8.4v-21.6c0-1.7-0.5-2.5-1.7-2.5c-1.1,0-1.7,0.8-1.7,2.6v21.5h-8.4v-24.1c0-3-0.1-4.4-0.8-7.1H321z
		"/>
	<path fill="#CE6058" d="M353.2,221.2h-7.4v5.4h1.5c5.4,0,6.7,1.6,6.7,8.3v1.9c0,3.7-0.4,6-1.4,7.2c-0.8,1.1-1.8,1.5-3.7,1.6
		c-0.9,0-0.9,0-3.6,0h-7.8v-6.8h7.8v-5.4h-1.3c-3.2,0-4.6-0.5-5.5-2c-0.9-1.4-1.1-2.8-1.1-6.6V223c0-3.8,0.7-6.4,1.9-7.4
		c1.1-0.9,2.1-1.1,6.6-1.1h7.2V221.2z"/>
</g>
<g>
	<path fill="#CE6058" d="M66.7,296.7c3.4,0,3.4,0,4,0.1c1.9,0.3,3.1,1.1,3.7,2.4c0.5,1.1,0.7,4,0.7,7.9v8.4c0,3.2-0.2,6.5-0.5,8.2
		c-0.4,2.5-1.8,3.8-4.1,4c-0.2,0-0.9,0-3.9,0.1H54.9v-31.2H66.7z M64.8,321.1c1.7,0,2.1-0.5,2.1-2.7v-12.1c0-2.3-0.3-2.8-2.1-2.8
		h-1.5v17.6H64.8z"/>
	<path fill="#CE6058" d="M95.6,303.5h-7.7v5.4h7.7v6.8h-7.7v5.4h7.7v6.8h-7.8c-4,0-4.3-0.1-5-0.3c-2.6-0.7-3.3-3-3.3-11v-10
		c0-1.8,0.2-4.9,0.5-6c0.4-2.2,1.4-3.3,3.1-3.7c0.7-0.2,1.3-0.2,4.7-0.3h7.8V303.5z"/>
	<path fill="#CE6058" d="M115.1,303.5h-7.4v5.4h1.5c5.4,0,6.7,1.6,6.7,8.3v1.9c0,3.7-0.4,6-1.4,7.2c-0.8,1.1-1.8,1.5-3.7,1.6
		c-0.9,0-0.9,0-3.6,0h-7.8v-6.8h7.8v-5.4H106c-3.2,0-4.6-0.5-5.5-2c-0.9-1.4-1.1-2.8-1.1-6.6v-1.9c0-3.8,0.7-6.4,1.9-7.4
		c1.1-0.9,2.1-1.1,6.6-1.1h7.2V303.5z"/>
	<path fill="#CE6058" d="M134.8,303.5h-7.4v5.4h1.5c5.4,0,6.7,1.6,6.7,8.3v1.9c0,3.7-0.4,6-1.4,7.2c-0.8,1.1-1.8,1.5-3.7,1.6
		c-0.9,0-0.9,0-3.6,0h-7.8v-6.8h7.8v-5.4h-1.3c-3.2,0-4.6-0.5-5.5-2c-0.9-1.4-1.1-2.8-1.1-6.6v-1.9c0-3.8,0.7-6.4,1.9-7.4
		c1.1-0.9,2.1-1.1,6.6-1.1h7.2V303.5z"/>
	<path fill="#CE6058" d="M155.4,303.5h-7.7v5.4h7.7v6.8h-7.7v5.4h7.7v6.8h-7.8c-4,0-4.3-0.1-5-0.3c-2.6-0.7-3.3-3-3.3-11v-10
		c0-1.8,0.2-4.9,0.5-6c0.4-2.2,1.4-3.3,3.1-3.7c0.7-0.2,1.3-0.2,4.7-0.3h7.8V303.5z"/>
	<path fill="#CE6058" d="M172.8,296.7c4.2,0,4.6,0.1,5.6,0.7c1.2,0.8,1.9,2.7,1.9,5.3v2c0,3.1-0.1,4-0.8,5.1c-0.7,1.3-1.7,1.8-3.7,2
		c3.7,1.1,4.6,2.2,4.6,5.9v4.8c0,1.9,0.2,3.7,0.7,5.2h-8.4c-0.5-1.6-0.7-2.9-0.7-5.2v-4.2c0-2-0.7-2.8-2.4-2.8h-1.1V328H160v-31.2
		H172.8z M169.6,308.9c2,0,2.4-0.5,2.4-2.7c0-2.1-0.6-2.8-2.4-2.8h-1.2v5.4H169.6z"/>
	<path fill="#CE6058" d="M200,303.5h-3.8V328h-8.4v-24.4H184v-6.8h16V303.5z"/>
	<path fill="#CE6058" d="M230.8,303.5H227V328h-8.4v-24.4h-3.8v-6.8h16V303.5z"/>
	<path fill="#CE6058" d="M246.9,296.7c4.2,0,4.6,0.1,5.6,0.7c1.2,0.8,1.9,2.7,1.9,5.3v2c0,3.1-0.1,4-0.8,5.1c-0.7,1.3-1.7,1.8-3.7,2
		c3.7,1.1,4.6,2.2,4.6,5.9v4.8c0,1.9,0.2,3.7,0.7,5.2h-8.4c-0.5-1.6-0.7-2.9-0.7-5.2v-4.2c0-2-0.7-2.8-2.4-2.8h-1.1V328h-8.4v-31.2
		H246.9z M243.7,308.9c2,0,2.4-0.5,2.4-2.7c0-2.1-0.6-2.8-2.4-2.8h-1.2v5.4H243.7z"/>
	<path fill="#CE6058" d="M267.7,328h-8.4v-24.9c0-2.7,0.5-4.4,1.5-5.2s2.9-1.2,7-1.2h3.4c4.1,0,6,0.3,7,1.2c1,0.8,1.5,2.5,1.5,5.2
		V328h-8.4v-6.6h-3.5V328z M271.2,314.4v-8.2c0-2-0.6-2.9-1.8-2.9c-1.2,0-1.7,0.9-1.7,2.9v8.2H271.2z"/>
	<path fill="#CE6058" d="M292.2,296.7V307c0,4.5,0.1,5.3,1.7,7c1.5-1.7,1.7-2.5,1.7-7v-10.3h8.4v10.2c0,4.1-0.1,5-1,7.1
		c-1.1,2.4-2.7,4.4-4.8,5.9v8.1h-8.4v-8.1c-2.2-1.4-3.8-3.4-4.9-5.9c-0.9-2.2-1-3-1-7.1v-10.2H292.2z"/>
	<path fill="#CE6058" d="M323.5,303.5h-7.4v5.4h1.5c5.4,0,6.7,1.6,6.7,8.3v1.9c0,3.7-0.4,6-1.4,7.2c-0.8,1.1-1.8,1.5-3.7,1.6
		c-0.9,0-0.9,0-3.6,0h-7.8v-6.8h7.8v-5.4h-1.3c-3.2,0-4.6-0.5-5.5-2c-0.9-1.4-1.1-2.8-1.1-6.6v-1.9c0-3.8,0.7-6.4,1.9-7.4
		c1.1-0.9,2.1-1.1,6.6-1.1h7.2V303.5z"/>
</g>
<g>
	<path fill="#CE6058" d="M68.5,385.8H67c-2.2,0-2.6,0-3.1,0.6c-0.6,0.6-0.6,0.9-0.6,3.2v10.1c0,2.2,0.1,2.6,0.6,3.2
		c0.6,0.6,0.9,0.6,3.1,0.6h1.7v6.8h-5.6c-4,0-4.3-0.1-5-0.3c-2.6-0.7-3.3-3-3.3-11v-10c0-1.8,0.2-5,0.5-6c0.4-2.2,1.4-3.3,3.1-3.7
		c0.7-0.2,1.3-0.2,4.7-0.3h5.3V385.8z"/>
	<path fill="#CE6058" d="M92.8,397.5c0,5.2-0.3,7.2-1.3,9.3c-1.1,2.3-3.3,3.4-7,3.4h-3.7c-3.7,0-5.9-1.1-7-3.4
		c-1-2.1-1.3-4.1-1.3-9.3v-5.9c0-5.2,0.3-7.2,1.3-9.3c1.1-2.3,3.3-3.4,7-3.4h3.7c3.7,0,5.9,1,7,3.4c1,2.1,1.3,4.1,1.3,9.3V397.5z
		 M84.4,387.9c0-1.5-0.7-2.5-1.8-2.5s-1.8,1-1.8,2.5v13.4c0,1.5,0.7,2.5,1.8,2.5s1.8-0.9,1.8-2.5V387.9z"/>
	<path fill="#CE6058" d="M105.1,379c0.5,1.9,0.7,2.5,0.8,4.1c0.8-3.2,2.1-4.1,5.7-4.1c3.3,0,4.4,0.5,5.3,2.3
		c0.7,1.2,0.7,1.2,0.7,7.8v21.1h-8.4v-21.6c0-1.7-0.5-2.5-1.7-2.5c-1.1,0-1.7,0.8-1.7,2.6v21.5h-8.4v-24.1c0-3-0.1-4.4-0.8-7.1
		H105.1z"/>
	<path fill="#CE6058" d="M136.9,385.8h-3.8v24.4h-8.4v-24.4h-3.8V379h16V385.8z"/>
	<path fill="#CE6058" d="M149,410.2h-8.4v-24.9c0-2.7,0.5-4.4,1.5-5.2c1-0.8,2.9-1.2,7-1.2h3.4c4.1,0,6,0.3,7,1.2
		c1,0.8,1.5,2.5,1.5,5.2v24.9h-8.4v-6.6H149V410.2z M152.5,396.7v-8.2c0-2-0.6-2.9-1.8-2.9c-1.2,0-1.7,0.9-1.7,2.9v8.2H152.5z"/>
	<path fill="#CE6058" d="M179.2,385.8h-1.5c-2.2,0-2.6,0-3.1,0.6c-0.6,0.6-0.6,0.9-0.6,3.2v10.1c0,2.2,0.1,2.6,0.6,3.2
		c0.6,0.6,0.9,0.6,3.1,0.6h1.7v6.8h-5.6c-4,0-4.3-0.1-5-0.3c-2.6-0.7-3.3-3-3.3-11v-10c0-1.8,0.2-5,0.5-6c0.4-2.2,1.4-3.3,3.1-3.7
		c0.7-0.2,1.3-0.2,4.7-0.3h5.3V385.8z"/>
	<path fill="#CE6058" d="M197.7,385.8h-3.8v24.4h-8.4v-24.4h-3.8V379h16V385.8z"/>
</g>
<g>
	<path id="pinterest-circle-icon_3_" fill="#CE6058" d="M259.2,514.9c-10.6,0-19.2,8.6-19.2,19.2c0,10.6,8.6,19.2,19.2,19.2
		c10.6,0,19.2-8.6,19.2-19.2C278.4,523.5,269.8,514.9,259.2,514.9z M261.7,540.4c-1.5,0-2.9-0.8-3.4-1.7c0,0-0.8,3.2-1,3.8
		c-0.6,2.2-2.4,4.4-2.5,4.5c-0.1,0.1-0.3,0.1-0.3-0.1c0-0.3-0.5-3,0-5.3c0.3-1.1,1.8-7.6,1.8-7.6s-0.4-0.9-0.4-2.2
		c0-2.1,1.2-3.6,2.7-3.6c1.3,0,1.9,0.9,1.9,2.1c0,1.3-0.8,3.2-1.2,4.9c-0.3,1.5,0.7,2.7,2.2,2.7c2.6,0,4.4-3.4,4.4-7.4
		c0-3-2.1-5.3-5.8-5.3c-4.2,0-6.8,3.1-6.8,6.7c0,1.2,0.4,2.1,0.9,2.7c0.3,0.3,0.3,0.4,0.2,0.8c-0.1,0.3-0.2,0.9-0.3,1.1
		c-0.1,0.4-0.4,0.5-0.7,0.3c-1.9-0.8-2.8-2.9-2.8-5.3c0-3.9,3.3-8.7,9.9-8.7c5.3,0,8.8,3.8,8.8,8
		C269.2,536.3,266.2,540.4,261.7,540.4z"/>
	<path id="instagram-circle-icon_2_" fill="#CE6058" d="M179.2,525.7v2.4c0,0.4-0.3,0.7-0.7,0.7h-2.3c-0.4,0-0.7-0.3-0.7-0.7v-2.4
		c0-0.4,0.3-0.7,0.7-0.7h2.3C178.9,525,179.2,525.3,179.2,525.7z M170.3,537.3c1.7,0,3.1-1.4,3.1-3.1c0-1.7-1.4-3.1-3.1-3.1
		s-3.1,1.4-3.1,3.1C167.2,535.9,168.6,537.3,170.3,537.3z M189.3,534.1c0,10.6-8.6,19.2-19.2,19.2c-10.6,0-19.2-8.6-19.2-19.2
		c0-10.6,8.6-19.2,19.2-19.2C180.7,514.9,189.3,523.5,189.3,534.1z M181.1,531h-6.3c0.6,0.9,1,2,1,3.2c0,3.1-2.5,5.5-5.5,5.5
		c-3.1,0-5.5-2.5-5.5-5.5c0-1.2,0.4-2.3,1-3.2h-6.3v9.7c0,2.4,1.9,4.3,4.3,4.3h13.1c2.4,0,4.3-1.9,4.3-4.3V531z M170.3,538.5
		c2.3,0,4.3-1.9,4.3-4.3c0-1.3-0.6-2.4-1.5-3.2c-0.3-0.3-0.7-0.5-1-0.7c-0.5-0.2-1.1-0.4-1.8-0.4c-0.6,0-1.2,0.1-1.8,0.4
		c-0.4,0.2-0.7,0.4-1,0.7c-0.9,0.8-1.5,1.9-1.5,3.2C166.1,536.5,168,538.5,170.3,538.5z M181.1,527.5c0-2.4-1.9-4.3-4.3-4.3h-11.7
		v5.4h-0.9v-5.4h-0.5c0,0-0.1,0-0.1,0v5.4h-0.9v-5.3c-0.2,0-0.4,0.1-0.6,0.2v5.1h-0.9V524c-1.1,0.8-1.8,2-1.8,3.5v2.8h6.8
		c1-1,2.4-1.6,3.9-1.6c1.5,0,2.9,0.6,3.9,1.6h6.9L181.1,527.5L181.1,527.5z"/>
	<path id="facebook-circle-icon_2_" fill="#CE6058" d="M76.1,514.9c-10.6,0-19.2,8.6-19.2,19.2c0,10.6,8.6,19.2,19.2,19.2
		c10.6,0,19.2-8.6,19.2-19.2C95.3,523.5,86.7,514.9,76.1,514.9z M81.8,526.2c0,0-1.9,0-2.7,0c-0.9,0-1.1,0.4-1.1,1.4
		c0,0.8,0,2.4,0,2.4h3.8l-0.4,4.2h-3.5v12.4h-5v-12.4h-2.6v-4.2H73c0,0,0-0.6,0-3.3c0-3.1,1.7-4.7,5.4-4.7c0.6,0,3.4,0,3.4,0V526.2
		L81.8,526.2z"/>
	<path id="twitter-4-icon_2_" fill="#CE6058" d="M122.6,514.9c-10.6,0-19.2,8.6-19.2,19.2c0,10.6,8.6,19.2,19.2,19.2
		c10.6,0,19.2-8.6,19.2-19.2C141.8,523.5,133.2,514.9,122.6,514.9z M132.2,530.8c0.3,6.3-4.4,13.2-12.7,13.2c-2.5,0-4.9-0.7-6.8-2
		c2.4,0.3,4.7-0.4,6.6-1.8c-1.9,0-3.6-1.3-4.2-3.1c0.7,0.1,1.4,0.1,2-0.1c-2.1-0.4-3.6-2.4-3.6-4.4c0.6,0.3,1.3,0.5,2,0.6
		c-2-1.3-2.5-3.9-1.4-5.9c2.2,2.7,5.5,4.5,9.2,4.7c-0.6-2.8,1.5-5.5,4.3-5.5c1.3,0,2.4,0.5,3.3,1.4c1-0.2,2-0.6,2.8-1.1
		c-0.3,1-1,1.9-2,2.5c0.9-0.1,1.8-0.3,2.6-0.7C133.8,529.4,133.1,530.2,132.2,530.8z"/>
	<path fill="#CE6058" d="M211.8,531.3l5.9,3.1l-5.9,3.1L211.8,531.3z M233.1,534.1c0,10.6-8.6,19.2-19.2,19.2
		c-10.6,0-19.2-8.6-19.2-19.2c0-10.6,8.6-19.2,19.2-19.2C224.5,514.9,233.1,523.5,233.1,534.1z M225,533.3c0-1.8-0.2-3.5-0.2-3.5
		s-0.2-1.5-0.9-2.2c-0.8-0.9-1.8-0.9-2.2-0.9c-3.1-0.2-7.7-0.2-7.7-0.2s-5.7,0.1-7.4,0.2c-0.5,0.1-1.6,0.1-2.4,0.9
		c-0.7,0.7-0.9,2.2-0.9,2.2s-0.2,1.8-0.2,3.5v1.7c0,1.8,0.2,3.5,0.2,3.5s0.2,1.5,0.9,2.2c0.8,0.9,1.8,0.9,2.2,0.9
		c3.1,0.2,7.6,0.2,7.6,0.2h0c0,0,4.6,0,7.6-0.2c0.4-0.1,1.4-0.1,2.2-0.9c0.7-0.7,0.9-2.2,0.9-2.2s0.2-1.8,0.2-3.5V533.3z"/>
</g>
</svg>
