<?xml version="1.0" encoding="utf-8"?>
<!-- Generator: Adobe Illustrator 16.0.0, SVG Export Plug-In . SVG Version: 6.00 Build 0)  -->
<!DOCTYPE svg PUBLIC "-//W3C//DTD SVG 1.1//EN" "http://www.w3.org/Graphics/SVG/1.1/DTD/svg11.dtd">
<svg version="1.1" id="Layer_1" xmlns="http://www.w3.org/2000/svg" xmlns:xlink="http://www.w3.org/1999/xlink" x="0px" y="0px"
	 width="92.552px" height="92.551px" viewBox="0 0 92.552 92.551" enable-background="new 0 0 92.552 92.551" xml:space="preserve">
<path fill="#CD6058" d="M86.787,40.788H63.109c-1.281,0-1.924-1.548-1.021-2.455l16.711-16.816c2.045-2.045,2.393-5.379,0.536-7.596
	c-2.099-2.505-5.839-2.627-8.098-0.366L54.298,30.494c-0.906,0.905-2.455,0.268-2.459-1.014L51.765,5.767
	c0-2.891-2.112-5.492-4.992-5.745c-3.255-0.286-5.985,2.271-5.985,5.466v23.956c0,1.28-1.546,1.924-2.455,1.021L21.317,13.554
	c-2.259-2.261-5.999-2.139-8.097,0.366c-1.857,2.217-1.51,5.551,0.535,7.596l16.712,16.816c0.902,0.907,0.259,2.455-1.022,2.455
	H5.768c-2.892,0-5.493,2.111-5.746,4.991c-0.286,3.255,2.272,5.985,5.467,5.985h23.957c1.281,0,1.925,1.546,1.022,2.455
	L13.779,71.012c-2.231,2.23-2.372,6.027-0.045,8.158c1.047,0.957,2.375,1.435,3.702,1.435c1.404,0,2.81-0.535,3.881-1.606
	l17.016-16.912c0.909-0.902,2.455-0.26,2.455,1.021v23.677c0,2.892,2.112,5.492,4.993,5.745c3.254,0.286,5.984-2.271,5.984-5.467
	V63.107c0-1.281,1.547-1.924,2.455-1.021l17.018,16.913c1.071,1.071,2.477,1.606,3.881,1.606c1.327,0,2.655-0.478,3.701-1.435
	c2.327-2.131,2.187-5.928-0.045-8.158L62.059,54.296c-1.346-1.347-0.89-2.452,1.014-2.458l23.992-0.074
	c3.195,0,5.752-2.73,5.466-5.985C92.278,42.899,89.677,40.788,86.787,40.788"/>
</svg>
