<?xml version="1.0" encoding="utf-8"?>
<!-- Generator: Adobe Illustrator 16.0.0, SVG Export Plug-In . SVG Version: 6.00 Build 0)  -->
<!DOCTYPE svg PUBLIC "-//W3C//DTD SVG 1.1//EN" "http://www.w3.org/Graphics/SVG/1.1/DTD/svg11.dtd">
<svg version="1.1" id="Layer_1" xmlns="http://www.w3.org/2000/svg" xmlns:xlink="http://www.w3.org/1999/xlink" x="0px" y="0px"
	 width="125.762px" height="125.763px" viewBox="0 0 125.762 125.763" enable-background="new 0 0 125.762 125.763"
	 xml:space="preserve">
<g>
	<path fill="#CD6058" d="M103.392,57.394H79.714c-1.281,0-1.924-1.548-1.021-2.455l16.711-16.816
		c2.045-2.045,2.393-5.379,0.535-7.596c-2.098-2.505-5.838-2.627-8.098-0.366L70.901,47.1c-0.904,0.905-2.455,0.268-2.459-1.014
		L68.37,22.373c0-2.891-2.113-5.492-4.992-5.745c-3.255-0.286-5.985,2.271-5.985,5.466V46.05c0,1.28-1.546,1.924-2.455,1.021
		L37.921,30.16c-2.259-2.261-5.999-2.139-8.097,0.366c-1.857,2.217-1.51,5.551,0.535,7.596l16.712,16.816
		c0.902,0.907,0.259,2.455-1.022,2.455H22.373c-2.892,0-5.493,2.111-5.746,4.991c-0.286,3.255,2.272,5.986,5.467,5.986H46.05
		c1.281,0,1.925,1.545,1.022,2.454L30.383,87.618c-2.231,2.23-2.372,6.027-0.045,8.158c1.047,0.957,2.375,1.436,3.702,1.436
		c1.404,0,2.81-0.535,3.881-1.606l17.016-16.912c0.909-0.901,2.455-0.26,2.455,1.021v23.678c0,2.892,2.112,5.492,4.993,5.744
		c3.254,0.287,5.984-2.271,5.984-5.467V79.713c0-1.281,1.547-1.924,2.455-1.021l17.018,16.913c1.07,1.071,2.477,1.606,3.881,1.606
		c1.326,0,2.654-0.479,3.701-1.436c2.326-2.131,2.186-5.928-0.045-8.158L78.663,70.902c-1.346-1.347-0.891-2.452,1.014-2.458
		l23.992-0.074c3.195,0,5.752-2.729,5.467-5.985C108.882,59.505,106.28,57.394,103.392,57.394"/>
	<g>
		<circle fill="none" stroke="#CD6058" stroke-width="8" stroke-miterlimit="10" cx="62.881" cy="62.881" r="54.881"/>
	</g>
</g>
</svg>
